# xmcd
#
# Track frame offsets:
#	150
#	74598
#	126426
#	157712
#	199910
#
# Disc length: 3221 seconds
#
# Revision: 1
# Processed by: cddbd v1.5.2PL0 Copyright (c) Steve Scherf et al.
# Submitted via: audiograbber 1.83.01
#
DISCID=440c9305
DTITLE=Grateful Dead - 84-11-03 Berkeley Community Theatre, Berkeley CA
DYEAR=1900
DGENRE=
TTITLE0=Space
TTITLE1=Uncle John's Band
TTITLE2=Dear Mr Fantasy
TTITLE3=Throwing Stones
TTITLE4=Turn On Your Lovelight
EXTD=
EXTT0=
EXTT1=
EXTT2=
EXTT3=
EXTT4=
PLAYORDER=
